<svg width="101" height="21" viewBox="0 0 101 21" fill="none" xmlns="http://www.w3.org/2000/svg">
<path d="M4.75819 0.174104C6.00659 0.163586 6.92632 0.453565 7.51752 1.04398C8.10869 1.63446 8.40428 2.42217 8.40428 3.40723C8.40428 4.36973 8.09669 5.14587 7.48149 5.73555C6.86631 6.3252 5.92517 6.6204 4.65803 6.62113H2.37471V10.032H0.416626V0.188732L4.75819 0.174104ZM4.55901 5.08623C5.03646 5.10468 5.50704 4.96809 5.90038 4.69685C6.25527 4.43654 6.43232 4.00475 6.43157 3.40161C6.43157 2.77815 6.25675 2.33927 5.90717 2.08495C5.55755 1.83059 5.10741 1.70309 4.55675 1.7023H2.38821L2.37471 5.08623H4.55901Z" fill="black"/>
<path d="M10.8293 3.08929V4.39132C11.0285 3.91078 11.2975 3.56079 11.6384 3.34476C12.0049 3.12011 12.4287 3.00677 12.8583 3.01839H13.4536V4.59388H12.8718C12.3341 4.58322 11.814 4.78545 11.4246 5.15652C11.0278 5.53165 10.8293 6.18068 10.8293 7.10329V10.0293H8.91626V3.08929H10.8293Z" fill="black"/>
<path d="M17.0006 10.1838C16.3539 10.1967 15.7143 10.0457 15.1416 9.74496C14.6081 9.45795 14.1715 9.01939 13.8868 8.48458C13.5764 7.89125 13.4215 7.22873 13.4367 6.55919C13.4217 5.88962 13.5765 5.22719 13.8868 4.63368C14.1716 4.09931 14.6082 3.66117 15.1416 3.37447C15.7212 3.08578 16.3599 2.93555 17.0073 2.93555C17.6549 2.93555 18.2936 3.08578 18.8732 3.37447C19.4076 3.66246 19.8464 4.1001 20.1358 4.63368C20.4481 5.2265 20.603 5.88944 20.5859 6.55919C20.6031 7.22888 20.4481 7.89184 20.1358 8.48458C19.8464 9.01895 19.4073 9.45707 18.872 9.74496C18.2952 10.0466 17.6514 10.1974 17.0006 10.1838ZM17.0006 8.69728C17.2371 8.70693 17.4722 8.6569 17.6843 8.55158C17.8963 8.4464 18.0784 8.28944 18.2137 8.09517C18.5025 7.69464 18.647 7.18265 18.647 6.55919C18.647 5.93571 18.5025 5.42555 18.2137 5.02869C18.0781 4.83481 17.896 4.67815 17.684 4.57311C17.4721 4.46812 17.237 4.41812 17.0006 4.42776C16.7651 4.41737 16.5307 4.46711 16.3198 4.57225C16.1087 4.67732 15.9279 4.83444 15.7942 5.02869C15.5107 5.43007 15.369 5.94212 15.369 6.56475C15.3628 6.9366 15.4254 7.30612 15.5534 7.6553C15.6624 7.95723 15.8543 8.22244 16.1071 8.42051C16.3651 8.61082 16.6801 8.70839 17.0006 8.69728Z" fill="black"/>
<path d="M28.0101 7.52123C27.8968 8.36983 27.5254 9.02547 26.896 9.48831C26.2665 9.9513 25.5077 10.1827 24.6195 10.1827C23.9726 10.1955 23.3332 10.0445 22.7604 9.74372C22.2269 9.45642 21.7901 9.01801 21.5045 8.48349C21.1946 7.88972 21.0398 7.2275 21.0544 6.55795C21.0401 5.88847 21.1948 5.22623 21.5045 4.63249C21.7901 4.09825 22.2269 3.6602 22.7604 3.37322C23.3332 3.07255 23.9726 2.92157 24.6195 2.93434C25.5085 2.93434 26.265 3.16582 26.8892 3.62869C27.5134 4.09156 27.8885 4.7473 28.0146 5.59577H26.0238C25.9517 5.25622 25.7693 4.95004 25.5051 4.7248C25.2548 4.52181 24.9406 4.41415 24.6183 4.42094C24.3824 4.41134 24.148 4.46203 23.9371 4.56813C23.7263 4.67429 23.5459 4.83236 23.4131 5.0275C23.1295 5.42809 22.9877 5.94014 22.9877 6.56351C22.9877 7.18697 23.1295 7.69897 23.4131 8.09964C23.5467 8.29376 23.7273 8.45072 23.9381 8.5559C24.1489 8.66093 24.383 8.71081 24.6183 8.70057C24.9406 8.7073 25.2548 8.59978 25.5051 8.39674C25.7693 8.17147 25.9517 7.86529 26.0238 7.52577L28.0101 7.52123Z" fill="black"/>
<path d="M33.2765 10.0264L33.2483 9.16335C33.0232 9.496 32.7152 9.76443 32.3548 9.94202C31.9708 10.111 31.5543 10.1933 31.1349 10.1828C30.7117 10.1851 30.2938 10.088 29.9151 9.8993C29.5153 9.68938 29.1905 9.36068 28.9856 8.9584C28.7447 8.51955 28.6243 7.95694 28.6243 7.27043V3.08984H30.5374V6.98357C30.5374 7.63395 30.6559 8.09386 30.893 8.36317C31.0045 8.4938 31.1439 8.59781 31.3008 8.66744C31.4578 8.73722 31.6284 8.77087 31.8001 8.76604C32.0758 8.77379 32.3484 8.70533 32.5877 8.56797C32.8162 8.42842 32.9949 8.22055 33.0987 7.97377C33.2259 7.65911 33.2863 7.32163 33.2765 6.9824V3.08984H35.1895V10.0264H33.2765Z" fill="black"/>
<path d="M37.9827 3.09119V4.39322C38.1807 3.91272 38.4508 3.56274 38.7907 3.34666C39.1572 3.12219 39.581 3.0088 40.0106 3.02033H40.607V4.59578H40.0286C39.4908 4.58503 38.9705 4.78731 38.5814 5.15846C38.1838 5.53359 37.9849 6.18249 37.9849 7.10525V10.0312H36.0719V3.09119H37.9827Z" fill="black"/>
<path d="M42.5787 7.15432C42.5894 7.5667 42.7495 7.96137 43.0289 8.26491C43.1724 8.41076 43.3451 8.52471 43.5357 8.59917C43.7265 8.67363 43.9306 8.70698 44.1351 8.69703C44.4405 8.69426 44.7423 8.62916 45.0218 8.50584C45.3219 8.37901 45.5275 8.11643 45.6386 7.7181H47.5404C47.4648 8.23229 47.2429 8.714 46.9011 9.10561C46.5758 9.46941 46.1667 9.74852 45.7094 9.91924C45.2417 10.0945 44.7459 10.1833 44.2465 10.1814C43.5919 10.1907 42.9455 10.036 42.366 9.73126C41.8201 9.44133 41.3678 9.00233 41.0618 8.46532C40.7351 7.8815 40.5709 7.22103 40.5858 6.55222C40.5714 5.88274 40.7262 5.22045 41.0359 4.62676C41.3214 4.09253 41.7582 3.65447 42.2917 3.3675C42.8646 3.06677 43.504 2.91584 44.1509 2.92862C44.7828 2.91478 45.4077 3.06317 45.966 3.3596C46.4914 3.65281 46.9168 4.09701 47.1871 4.63464C47.4795 5.19577 47.6258 5.86798 47.6258 6.65125V7.14745L42.5787 7.15432ZM44.1542 4.42195C43.945 4.41225 43.7361 4.4463 43.5409 4.52186C43.3454 4.59741 43.1681 4.71283 43.0198 4.86083C42.7304 5.16491 42.5552 5.5597 42.5236 5.97827H45.7297C45.704 5.55388 45.5191 5.15481 45.212 4.86083C45.0735 4.72142 44.9086 4.61084 44.7271 4.53551C44.5454 4.46018 44.3508 4.42157 44.1542 4.42195Z" fill="black"/>
<path d="M45.9412 1.71765V0.189453H54.6939V1.71765H51.3033V10.0272H49.3317V1.71765H45.9412Z" fill="black"/>
<path d="M54.7932 7.15432C54.8041 7.5667 54.9643 7.96108 55.2433 8.26491C55.3872 8.41046 55.5603 8.52413 55.7512 8.59858C55.9418 8.67304 56.1461 8.70654 56.3505 8.69703C56.6562 8.69425 56.958 8.62916 57.2376 8.50584C57.5374 8.37901 57.7431 8.11643 57.8539 7.7181H59.7558C59.6801 8.23229 59.4583 8.714 59.1169 9.10561C58.7912 9.46941 58.3821 9.74852 57.925 9.91924C57.4571 10.0945 56.9617 10.1833 56.4621 10.1814C55.8075 10.1909 55.1608 10.0361 54.5813 9.73126C54.0357 9.44089 53.5831 9.00189 53.2763 8.46532C52.9503 7.88121 52.7864 7.22074 52.8012 6.55222C52.7869 5.88274 52.9419 5.22045 53.2515 4.62676C53.537 4.09253 53.9738 3.65447 54.507 3.3675C55.08 3.06677 55.7194 2.91584 56.3661 2.92862C56.9981 2.91478 57.6232 3.06317 58.1814 3.3596C58.7068 3.6529 59.1316 4.09705 59.4015 4.63464C59.6954 5.19577 59.842 5.86798 59.8416 6.65125V7.14745L54.7932 7.15432ZM56.3685 4.42195C56.1595 4.41225 55.9506 4.44624 55.7554 4.52186C55.5598 4.59741 55.3827 4.71283 55.2341 4.86083C54.9449 5.16491 54.7696 5.5597 54.7382 5.97827H57.9443C57.9184 5.55388 57.7335 5.15481 57.4263 4.86083C57.2879 4.72142 57.1232 4.61084 56.9413 4.53551C56.7601 4.46018 56.565 4.42157 56.3685 4.42195Z" fill="black"/>
<path d="M67.3339 7.52319C67.2204 8.37164 66.8492 9.02743 66.2198 9.49027C65.5902 9.95311 64.8315 10.1847 63.9429 10.1847C63.2967 10.1977 62.6573 10.0467 62.0853 9.74568C61.5511 9.45896 61.1142 9.0204 60.8291 8.4853C60.5187 7.89197 60.3641 7.22945 60.3793 6.55991C60.3641 5.89041 60.5192 5.22798 60.8291 4.63448C61.1147 4.10001 61.5515 3.66186 62.0853 3.37521C62.6573 3.0743 63.2967 2.92328 63.9429 2.93633C64.8323 2.93633 65.5889 3.16776 66.213 3.63068C66.8372 4.09355 67.2122 4.74924 67.338 5.59776H65.3486C65.2766 5.25833 65.0948 4.95218 64.8309 4.72674C64.5804 4.52413 64.2664 4.41656 63.9443 4.42292C63.7082 4.41313 63.4734 4.46371 63.2626 4.56985C63.0512 4.67595 62.8708 4.83417 62.738 5.02949C62.4529 5.42782 62.3104 5.93797 62.3104 6.55991C62.3104 7.18191 62.4525 7.6939 62.7367 8.09604C62.8699 8.29045 63.0508 8.44785 63.2616 8.55317C63.4723 8.6585 63.7067 8.70838 63.9421 8.69814C64.2645 8.70414 64.5785 8.59618 64.8287 8.39314C65.093 8.16845 65.2751 7.86257 65.3462 7.52319H67.3339Z" fill="black"/>
<path d="M69.9446 0.189453L69.9728 3.95487C70.1984 3.62274 70.5064 3.35477 70.8663 3.17726C71.25 3.00769 71.6666 2.92543 72.0865 2.93642C72.5048 2.93425 72.9187 3.03103 73.2927 3.21888C73.6922 3.4295 74.017 3.75846 74.2222 4.1608C74.463 4.59968 74.5834 5.16233 74.5834 5.8488V10.025H72.6829V6.13456C72.6829 5.48271 72.5644 5.02242 72.3281 4.75385C72.2142 4.62238 72.0721 4.51798 71.9121 4.44833C71.7525 4.37863 71.5794 4.34536 71.4055 4.351C71.1343 4.34541 70.8672 4.41387 70.6324 4.54903C70.4036 4.68871 70.2246 4.89703 70.1213 5.14434C69.9934 5.45835 69.9335 5.79578 69.9446 6.13456V10.0272H68.0316V0.189453H69.9446Z" fill="black"/>
<path d="M82.8416 0.374409V10H81.0979V2.07111H81.0415L78.7902 3.50931V1.91131L81.1825 0.374409H82.8416ZM88.1817 10.1833C87.4078 10.1833 86.7435 9.98747 86.1889 9.5958C85.6374 9.201 85.2129 8.6323 84.9152 7.8897C84.6207 7.14397 84.4734 6.24627 84.4734 5.1966C84.4765 4.14694 84.6254 3.25394 84.9199 2.51761C85.2176 1.77814 85.6421 1.21414 86.1936 0.825609C86.7482 0.437075 87.4109 0.242809 88.1817 0.242809C88.9525 0.242809 89.6152 0.437075 90.1698 0.825609C90.7244 1.21414 91.149 1.77814 91.4435 2.51761C91.7412 3.25707 91.89 4.15007 91.89 5.1966C91.89 6.2494 91.7412 7.14867 91.4435 7.8944C91.149 8.637 90.7244 9.20413 90.1698 9.5958C89.6183 9.98747 88.9556 10.1833 88.1817 10.1833ZM88.1817 8.7122C88.7833 8.7122 89.258 8.4161 89.6058 7.8239C89.9567 7.22857 90.1322 6.3528 90.1322 5.1966C90.1322 4.43207 90.0523 3.78974 89.8925 3.26961C89.7327 2.74947 89.5071 2.35781 89.2157 2.09461C88.9243 1.82827 88.5796 1.69511 88.1817 1.69511C87.5832 1.69511 87.1101 1.99277 86.7623 2.58811C86.4145 3.18031 86.239 4.04981 86.2359 5.1966C86.2328 5.96427 86.3095 6.60974 86.4662 7.133C86.626 7.65627 86.8516 8.05107 87.143 8.3174C87.4344 8.5806 87.7806 8.7122 88.1817 8.7122ZM96.3477 10.1833C95.5738 10.1833 94.9095 9.98747 94.3549 9.5958C93.8034 9.201 93.3789 8.6323 93.0812 7.8897C92.7867 7.14397 92.6394 6.24627 92.6394 5.1966C92.6425 4.14694 92.7914 3.25394 93.0859 2.51761C93.3836 1.77814 93.8081 1.21414 94.3596 0.825609C94.9142 0.437075 95.5769 0.242809 96.3477 0.242809C97.1185 0.242809 97.7812 0.437075 98.3358 0.825609C98.8904 1.21414 99.315 1.77814 99.6095 2.51761C99.9072 3.25707 100.056 4.15007 100.056 5.1966C100.056 6.2494 99.9072 7.14867 99.6095 7.8944C99.315 8.637 98.8904 9.20413 98.3358 9.5958C97.7843 9.98747 97.1216 10.1833 96.3477 10.1833ZM96.3477 8.7122C96.9493 8.7122 97.424 8.4161 97.7718 7.8239C98.1227 7.22857 98.2982 6.3528 98.2982 5.1966C98.2982 4.43207 98.2183 3.78974 98.0585 3.26961C97.8987 2.74947 97.6731 2.35781 97.3817 2.09461C97.0903 1.82827 96.7456 1.69511 96.3477 1.69511C95.7492 1.69511 95.2761 1.99277 94.9283 2.58811C94.5805 3.18031 94.405 4.04981 94.4019 5.1966C94.3988 5.96427 94.4755 6.60974 94.6322 7.133C94.792 7.65627 95.0176 8.05107 95.309 8.3174C95.6004 8.5806 95.9466 8.7122 96.3477 8.7122Z" fill="black"/>
<path d="M1.05749 20.334H0.229335L2.62461 13.8107H3.44002L5.83529 20.334H5.00714L3.0578 14.8427H3.00683L1.05749 20.334ZM1.36327 17.7858H4.70136V18.4866H1.36327V17.7858ZM8.14839 20.4359C7.74068 20.4359 7.38075 20.3329 7.0686 20.1269C6.75645 19.9188 6.51225 19.6258 6.33601 19.2478C6.15976 18.8677 6.07163 18.4186 6.07163 17.9005C6.07163 17.3866 6.15976 16.9407 6.33601 16.5627C6.51225 16.1847 6.75752 15.8927 7.07179 15.6868C7.38606 15.4808 7.74918 15.3778 8.16113 15.3778C8.47965 15.3778 8.73128 15.4309 8.91602 15.5371C9.10289 15.6411 9.24516 15.76 9.34284 15.8938C9.44264 16.0255 9.52015 16.1338 9.57536 16.2187H9.63906V13.8107H10.3908V20.334H9.66454V19.5823H9.57536C9.52015 19.6715 9.44158 19.784 9.33965 19.9199C9.23773 20.0537 9.09227 20.1737 8.90328 20.2798C8.71429 20.3839 8.46266 20.4359 8.14839 20.4359ZM8.25031 19.7606C8.55185 19.7606 8.80666 19.6821 9.01476 19.5249C9.22286 19.3657 9.38106 19.1459 9.48936 18.8656C9.59766 18.5832 9.6518 18.2572 9.6518 17.8877C9.6518 17.5225 9.59872 17.2029 9.49254 16.929C9.38637 16.653 9.22923 16.4385 9.02113 16.2856C8.81303 16.1306 8.55609 16.0531 8.25031 16.0531C7.93179 16.0531 7.66636 16.1348 7.45401 16.2983C7.24379 16.4597 7.08559 16.6795 6.97942 16.9577C6.87537 17.2337 6.82334 17.5437 6.82334 17.8877C6.82334 18.236 6.87643 18.5524 6.9826 18.8369C7.0909 19.1194 7.25016 19.3444 7.46038 19.5122C7.67273 19.6778 7.93604 19.7606 8.25031 19.7606ZM15.424 15.4415L13.6148 20.334H12.8504L11.0412 15.4415H11.8566L13.2071 19.3402H13.2581L14.6086 15.4415H15.424ZM17.2585 20.4487C16.9485 20.4487 16.6672 20.3903 16.4145 20.2735C16.1618 20.1546 15.9611 19.9836 15.8125 19.7606C15.6638 19.5356 15.5895 19.2638 15.5895 18.9452C15.5895 18.6649 15.6447 18.4377 15.7551 18.2636C15.8656 18.0874 16.0131 17.9493 16.1979 17.8495C16.3826 17.7497 16.5865 17.6754 16.8094 17.6266C17.0345 17.5756 17.2607 17.5353 17.4879 17.5055C17.7852 17.4673 18.0262 17.4386 18.2109 17.4195C18.3978 17.3983 18.5337 17.3633 18.6186 17.3144C18.7057 17.2656 18.7492 17.1806 18.7492 17.0596V17.0341C18.7492 16.7198 18.6632 16.4756 18.4912 16.3015C18.3213 16.1274 18.0633 16.0403 17.7172 16.0403C17.3584 16.0403 17.077 16.1189 16.8731 16.276C16.6693 16.4332 16.526 16.6009 16.4431 16.7793L15.7297 16.5245C15.8571 16.2272 16.0269 15.9957 16.2393 15.8301C16.4538 15.6624 16.6873 15.5456 16.94 15.4797C17.1948 15.4118 17.4454 15.3778 17.6917 15.3778C17.8489 15.3778 18.0294 15.3969 18.2332 15.4351C18.4392 15.4712 18.6377 15.5466 18.8289 15.6613C19.0221 15.776 19.1824 15.949 19.3098 16.1805C19.4372 16.4119 19.5009 16.722 19.5009 17.1106V20.334H18.7492V19.6715H18.711C18.66 19.7776 18.5751 19.8912 18.4562 20.0123C18.3373 20.1333 18.1791 20.2363 17.9816 20.3212C17.7841 20.4062 17.5431 20.4487 17.2585 20.4487ZM17.3732 19.7734C17.6705 19.7734 17.9211 19.715 18.1249 19.5982C18.3309 19.4814 18.4859 19.3306 18.59 19.1459C18.6961 18.9612 18.7492 18.7669 18.7492 18.563V17.875C18.7174 17.9132 18.6473 17.9483 18.539 17.9801C18.4328 18.0098 18.3097 18.0364 18.1695 18.0597C18.0315 18.081 17.8967 18.1001 17.765 18.1171C17.6355 18.1319 17.5304 18.1447 17.4497 18.1553C17.2543 18.1808 17.0717 18.2222 16.9018 18.2795C16.7341 18.3347 16.5981 18.4186 16.4941 18.5312C16.3922 18.6416 16.3412 18.7923 16.3412 18.9835C16.3412 19.2446 16.4378 19.4421 16.6311 19.5759C16.8264 19.7076 17.0738 19.7734 17.3732 19.7734ZM21.1762 17.3909V20.334H20.4245V15.4415H21.1507V16.206H21.2144C21.3291 15.9575 21.5032 15.7579 21.7368 15.6071C21.9704 15.4543 22.2719 15.3778 22.6414 15.3778C22.9726 15.3778 23.2625 15.4458 23.5109 15.5817C23.7594 15.7154 23.9526 15.9193 24.0907 16.1932C24.2287 16.465 24.2977 16.809 24.2977 17.2252V20.334H23.546V17.2762C23.546 16.8918 23.4462 16.5924 23.2466 16.378C23.047 16.1614 22.773 16.0531 22.4248 16.0531C22.1848 16.0531 21.9704 16.1051 21.7814 16.2091C21.5945 16.3132 21.4469 16.465 21.3386 16.6646C21.2303 16.8642 21.1762 17.1063 21.1762 17.3909ZM27.2104 20.4359C26.7517 20.4359 26.3568 20.3276 26.0255 20.111C25.6942 19.8944 25.4394 19.5961 25.2611 19.216C25.0827 18.8359 24.9935 18.4016 24.9935 17.9132C24.9935 17.4163 25.0848 16.9778 25.2674 16.5977C25.4522 16.2155 25.7091 15.9172 26.0382 15.7027C26.3695 15.4861 26.756 15.3778 27.1977 15.3778C27.5417 15.3778 27.8517 15.4415 28.1277 15.5689C28.4038 15.6963 28.6299 15.8747 28.8062 16.104C28.9824 16.3334 29.0918 16.6009 29.1343 16.9067H28.3826C28.3252 16.6837 28.1978 16.4863 28.0003 16.3143C27.805 16.1401 27.5417 16.0531 27.2104 16.0531C26.9174 16.0531 26.6604 16.1295 26.4396 16.2824C26.2209 16.4332 26.0499 16.6466 25.9268 16.9226C25.8057 17.1966 25.7452 17.5183 25.7452 17.8877C25.7452 18.2657 25.8047 18.5949 25.9236 18.8752C26.0446 19.1555 26.2145 19.3731 26.4332 19.5281C26.654 19.6831 26.9131 19.7606 27.2104 19.7606C27.4058 19.7606 27.5831 19.7267 27.7423 19.6587C27.9016 19.5908 28.0364 19.4931 28.1468 19.3657C28.2573 19.2383 28.3358 19.0854 28.3826 18.907H29.1343C29.0918 19.1958 28.9867 19.4559 28.8189 19.6874C28.6533 19.9167 28.4335 20.0993 28.1596 20.2352C27.8878 20.369 27.5714 20.4359 27.2104 20.4359ZM31.8359 20.4359C31.3645 20.4359 30.9579 20.3319 30.616 20.1238C30.2763 19.9135 30.014 19.6205 29.8293 19.2446C29.6467 18.8667 29.5553 18.4271 29.5553 17.926C29.5553 17.4248 29.6467 16.9832 29.8293 16.6009C30.014 16.2166 30.271 15.9172 30.6001 15.7027C30.9314 15.4861 31.3178 15.3778 31.7595 15.3778C32.0143 15.3778 32.266 15.4203 32.5144 15.5052C32.7628 15.5902 32.989 15.7282 33.1928 15.9193C33.3967 16.1083 33.5591 16.3589 33.6802 16.671C33.8012 16.9832 33.8617 17.3675 33.8617 17.824V18.1426H30.0905V17.4928H33.0973C33.0973 17.2167 33.0421 16.9704 32.9317 16.7538C32.8234 16.5372 32.6683 16.3663 32.4666 16.241C32.267 16.1157 32.0313 16.0531 31.7595 16.0531C31.4601 16.0531 31.201 16.1274 30.9823 16.276C30.7657 16.4226 30.599 16.6137 30.4822 16.8494C30.3654 17.0851 30.3071 17.3378 30.3071 17.6075V18.0406C30.3071 18.4101 30.3708 18.7233 30.4982 18.9803C30.6277 19.2351 30.8071 19.4294 31.0365 19.5632C31.2658 19.6948 31.5323 19.7606 31.8359 19.7606C32.0334 19.7606 32.2118 19.733 32.3711 19.6778C32.5324 19.6205 32.6715 19.5356 32.7883 19.423C32.9051 19.3083 32.9954 19.1661 33.0591 18.9962L33.7853 19.2001C33.7088 19.4464 33.5804 19.663 33.3999 19.8498C33.2194 20.0346 32.9964 20.179 32.731 20.283C32.4656 20.3849 32.1672 20.4359 31.8359 20.4359ZM36.4042 20.4359C35.9965 20.4359 35.6365 20.3329 35.3244 20.1269C35.0122 19.9188 34.768 19.6258 34.5918 19.2478C34.4155 18.8677 34.3274 18.4186 34.3274 17.9005C34.3274 17.3866 34.4155 16.9407 34.5918 16.5627C34.768 16.1847 35.0133 15.8927 35.3276 15.6868C35.6418 15.4808 36.005 15.3778 36.4169 15.3778C36.7354 15.3778 36.9871 15.4309 37.1718 15.5371C37.3587 15.6411 37.5009 15.76 37.5986 15.8938C37.6984 16.0255 37.7759 16.1338 37.8311 16.2187H37.8948V13.8107H38.6466V20.334H37.9203V19.5823H37.8311C37.7759 19.6715 37.6974 19.784 37.5954 19.9199C37.4935 20.0537 37.3481 20.1737 37.1591 20.2798C36.9701 20.3839 36.7184 20.4359 36.4042 20.4359ZM36.5061 19.7606C36.8076 19.7606 37.0624 19.6821 37.2705 19.5249C37.4786 19.3657 37.6368 19.1459 37.7451 18.8656C37.8534 18.5832 37.9076 18.2572 37.9076 17.8877C37.9076 17.5225 37.8545 17.2029 37.7483 16.929C37.6422 16.653 37.485 16.4385 37.2769 16.2856C37.0688 16.1306 36.8119 16.0531 36.5061 16.0531C36.1876 16.0531 35.9221 16.1348 35.7098 16.2983C35.4996 16.4597 35.3414 16.6795 35.2352 16.9577C35.1312 17.2337 35.0791 17.5437 35.0791 17.8877C35.0791 18.236 35.1322 18.5524 35.2384 18.8369C35.3467 19.1194 35.5059 19.3444 35.7162 19.5122C35.9285 19.6778 36.1918 19.7606 36.5061 19.7606ZM42.1229 20.334H41.2947L43.69 13.8107H44.5054L46.9007 20.334H46.0725L44.1232 14.8427H44.0722L42.1229 20.334ZM42.4287 17.7858H45.7668V18.4866H42.4287V17.7858ZM48.2582 13.8107V20.334H47.4683V13.8107H48.2582ZM51.7354 20.334H50.9072L53.3025 13.8107H54.1179L56.5132 20.334H55.685L53.7357 14.8427H53.6847L51.7354 20.334ZM52.0411 17.7858H55.3792V18.4866H52.0411V17.7858ZM57.4741 20.334L55.9835 15.4415H56.7734L57.8309 19.1873H57.8818L58.9266 15.4415H59.7293L60.7613 19.1746H60.8122L61.8697 15.4415H62.6596L61.169 20.334H60.43L59.3598 16.5754H59.2833L58.2131 20.334H57.4741ZM64.6447 20.4487C64.3346 20.4487 64.0533 20.3903 63.8006 20.2735C63.5479 20.1546 63.3472 19.9836 63.1986 19.7606C63.0499 19.5356 62.9756 19.2638 62.9756 18.9452C62.9756 18.6649 63.0308 18.4377 63.1412 18.2636C63.2517 18.0874 63.3992 17.9493 63.584 17.8495C63.7687 17.7497 63.9726 17.6754 64.1955 17.6266C64.4206 17.5756 64.6468 17.5353 64.874 17.5055C65.1713 17.4673 65.4123 17.4386 65.597 17.4195C65.7839 17.3983 65.9198 17.3633 66.0047 17.3144C66.0918 17.2656 66.1353 17.1806 66.1353 17.0596V17.0341C66.1353 16.7198 66.0493 16.4756 65.8773 16.3015C65.7075 16.1274 65.4495 16.0403 65.1033 16.0403C64.7445 16.0403 64.4631 16.1189 64.2593 16.276C64.0554 16.4332 63.9121 16.6009 63.8292 16.7793L63.1158 16.5245C63.2432 16.2272 63.413 15.9957 63.6254 15.8301C63.8399 15.6624 64.0734 15.5456 64.3261 15.4797C64.581 15.4118 64.8315 15.3778 65.0778 15.3778C65.235 15.3778 65.4155 15.3969 65.6193 15.4351C65.8253 15.4712 66.0239 15.5466 66.215 15.6613C66.4082 15.776 66.5685 15.949 66.6959 16.1805C66.8233 16.4119 66.887 16.722 66.887 17.1106V20.334H66.1353V19.6715H66.0971C66.0462 19.7776 65.9612 19.8912 65.8423 20.0123C65.7234 20.1333 65.5652 20.2363 65.3677 20.3212C65.1702 20.4062 64.9292 20.4487 64.6447 20.4487ZM64.7593 19.7734C65.0566 19.7734 65.3072 19.715 65.511 19.5982C65.717 19.4814 65.872 19.3306 65.9761 19.1459C66.0822 18.9612 66.1353 18.7669 66.1353 18.563V17.875C66.1035 17.9132 66.0334 17.9483 65.9251 17.9801C65.8189 18.0098 65.6958 18.0364 65.5556 18.0597C65.4176 18.081 65.2828 18.1001 65.1511 18.1171C65.0216 18.1319 64.9165 18.1447 64.8358 18.1553C64.6404 18.1808 64.4578 18.2222 64.2879 18.2795C64.1202 18.3347 63.9843 18.4186 63.8802 18.5312C63.7783 18.6416 63.7273 18.7923 63.7273 18.9835C63.7273 19.2446 63.8239 19.4421 64.0172 19.5759C64.2125 19.7076 64.4599 19.7734 64.7593 19.7734ZM67.8106 20.334V15.4415H68.5368V16.1805H68.5878C68.677 15.9384 68.8384 15.742 69.0719 15.5912C69.3055 15.4404 69.5688 15.3651 69.8619 15.3651C69.9171 15.3651 69.9861 15.3661 70.0689 15.3683C70.1517 15.3704 70.2144 15.3736 70.2568 15.3778V16.1423C70.2313 16.1359 70.173 16.1263 70.0816 16.1136C69.9925 16.0987 69.898 16.0913 69.7982 16.0913C69.5603 16.0913 69.348 16.1412 69.1611 16.241C68.9764 16.3387 68.8299 16.4746 68.7216 16.6487C68.6154 16.8207 68.5623 17.0171 68.5623 17.238V20.334H67.8106ZM72.3979 20.4359C71.9902 20.4359 71.6303 20.3329 71.3181 20.1269C71.006 19.9188 70.7618 19.6258 70.5855 19.2478C70.4093 18.8677 70.3212 18.4186 70.3212 17.9005C70.3212 17.3866 70.4093 16.9407 70.5855 16.5627C70.7618 16.1847 71.0071 15.8927 71.3213 15.6868C71.6356 15.4808 71.9987 15.3778 72.4107 15.3778C72.7292 15.3778 72.9808 15.4309 73.1656 15.5371C73.3524 15.6411 73.4947 15.76 73.5924 15.8938C73.6922 16.0255 73.7697 16.1338 73.8249 16.2187H73.8886V13.8107H74.6403V20.334H73.9141V19.5823H73.8249C73.7697 19.6715 73.6911 19.784 73.5892 19.9199C73.4873 20.0537 73.3418 20.1737 73.1528 20.2798C72.9638 20.3839 72.7122 20.4359 72.3979 20.4359ZM72.4999 19.7606C72.8014 19.7606 73.0562 19.6821 73.2643 19.5249C73.4724 19.3657 73.6306 19.1459 73.7389 18.8656C73.8472 18.5832 73.9013 18.2572 73.9013 17.8877C73.9013 17.5225 73.8483 17.2029 73.7421 16.929C73.6359 16.653 73.4788 16.4385 73.2707 16.2856C73.0626 16.1306 72.8056 16.0531 72.4999 16.0531C72.1813 16.0531 71.9159 16.1348 71.7036 16.2983C71.4933 16.4597 71.3351 16.6795 71.229 16.9577C71.1249 17.2337 71.0729 17.5437 71.0729 17.8877C71.0729 18.236 71.126 18.5524 71.2321 18.8369C71.3404 19.1194 71.4997 19.3444 71.7099 19.5122C71.9223 19.6778 72.1856 19.7606 72.4999 19.7606Z" fill="black"/>
</svg>
