<svg fill="none" xmlns="http://www.w3.org/2000/svg" viewBox="0 0 93 16"><path d="M8.444 4.085v8.155c.052 1.913 1.61 3.418 3.48 3.365 1.802-.053 3.248-1.532 3.291-3.365V4.085c0-1.886-1.498-3.418-3.342-3.418h-.009c-1.853-.035-3.386 1.479-3.42 3.374zm2.424 8.155V4.085c-.008-.513.399-.947.9-.947h.096a.91.91 0 0 1 .918.903v8.199a.95.95 0 0 1-.927.947c-.528.027-.978-.398-1.004-.938" fill="#000"/><path d="M34.76.809h-6.85v2.479h2.217v12.157h2.424V3.288h2.209z" fill="#000"/><path d="M41.895.809v11.43a.944.944 0 0 1-.91.983c-.52.018-.944-.398-.96-.93V.81H37.53v11.43c.087 1.93 1.689 3.427 3.577 3.339 1.766-.08 3.186-1.532 3.264-3.338V.809z" fill="#000"/><path d="M64.071 3.288V.808H58.08v14.637h5.992v-2.47h-3.567v-3.79h2.277v-2.48h-2.277V3.289z" fill="#000"/><path d="M25.633 15.445h-2.564L21.286 8.53s1.567-.292 1.567-1.966V4.306a.983.983 0 0 0-.953-1.018h-.97v12.157h-2.424V.81h3.36c1.835-.018 3.35 1.47 3.42 3.347v2.328c0 1.453-.502 2.47-1.35 3.206z" fill="#000"/><path d="M52.658.809v8.013L50.164.809H47.67v14.636h2.494V8.308l2.278 7.137h2.71V.809z" fill="#000"/><path d="M2.806 1.03H.243v14.637h2.563v-6.27h2.356v-2.47H2.806V3.51h3.715V1.03z" fill="#000"/><path d="M90.511 12.432c-.006.287-.22.512-.486.509h-1.453c-.265.003-.48-.222-.486-.51V3.89c.013-.287.23-.513.495-.51h1.457c.259-.003.47.22.473.5v8.553M90.376.858h-2.139c-1.381 0-2.5 1.172-2.5 2.62v9.275c0 1.445 1.119 2.62 2.503 2.62h2.139c1.381 0 2.504-1.171 2.504-2.62V3.479C92.88 2.029 91.757.858 90.376.858m-7.901 11.574c-.006.287-.224.512-.486.509h-1.45c-.266.003-.48-.222-.486-.51V3.89c.012-.287.233-.516.498-.51h1.45c.26-.003.47.223.474.503v8.55M82.336.858h-2.138c-1.382 0-2.498 1.172-2.498 2.62v9.275c0 1.445 1.123 2.62 2.504 2.62h2.139c1.38 0 2.504-1.171 2.504-2.62V3.479c0-1.446-1.12-2.621-2.504-2.621zM76.804 8.73c0-1.449-1.142-2.618-2.551-2.618h-2.158v-2.74h4.693V.858h-7.13v7.88h4.235c.268-.01.492.218.501.509v3.185c-.009.287-.23.516-.498.509H72.59c-.264.007-.488-.222-.495-.51v-1.998h-2.397v2.316c0 1.446 1.145 2.621 2.552 2.621h2.006c1.406 0 2.551-1.172 2.551-2.62z" fill="#000"/></svg>