<svg width="99" height="20" viewBox="0 0 99 20" fill="none" xmlns="http://www.w3.org/2000/svg">
<g clip-path="url(#clip0_1299_135)">
<path d="M0 0H19.8723V20H0V0Z" fill="black"/>
<path d="M55.5744 3.95752C55.7446 3.95752 55.7872 4.17029 55.7872 4.3405C55.8297 5.02135 55.8723 5.65965 55.8723 6.3405C55.9149 6.9788 55.9149 7.61709 55.9149 8.25539C56.2978 7.95752 56.6383 7.65965 57.0638 7.53199C57.7446 7.23412 58.5531 7.23411 59.234 7.57454C59.9574 7.95752 60.4255 8.63837 60.6808 9.36177C60.8936 10.0852 60.9787 10.8511 60.9361 11.5745C60.851 12.4682 60.6383 13.3192 60.1276 14.0426C59.8297 14.4682 59.4468 14.8086 58.9361 14.9788C58.1276 15.2767 57.2766 15.149 56.5531 14.7235C56.3404 14.5958 56.1276 14.3831 55.9574 14.2128C55.8723 14.4682 55.8297 14.7235 55.7446 14.9788C55.3617 14.9788 55.0212 15.0213 54.6383 14.9362C54.7659 14.3405 54.7659 13.7022 54.8085 13.1065C54.851 10.9362 54.8085 8.76603 54.8085 6.63837C54.7659 5.78731 54.8085 4.93624 54.6808 4.12773C54.9361 4.04263 55.2766 3.95752 55.5744 3.95752ZM58.3829 8.4256C58.0425 8.3405 57.7021 8.3405 57.4042 8.38305C56.8085 8.46816 56.3404 8.89369 55.9574 9.31922C55.9574 9.44688 55.9574 9.61709 55.9574 9.74475V13.1916C55.9574 13.3192 56.0425 13.4043 56.1276 13.4469C56.7234 14.0001 57.5744 14.2554 58.3404 14.0852C58.7234 14.0001 59.0638 13.7448 59.234 13.4043C59.5319 12.9362 59.617 12.3831 59.6595 11.8299C59.7021 11.4043 59.7446 10.9788 59.7021 10.5958C59.7021 10.1277 59.5744 9.61709 59.3191 9.19156C59.1063 8.76603 58.7659 8.51071 58.3829 8.4256ZM63.2766 4.25539C63.4893 4.17029 63.7872 4.17029 64 4.29795C64.2127 4.4256 64.3829 4.63837 64.468 4.85114C64.5957 5.36177 64.2127 5.91497 63.7021 5.95752C63.3191 6.00007 62.8936 5.78731 62.7659 5.36177C62.5957 4.9788 62.851 4.4256 63.2766 4.25539ZM28.0851 5.14901C28.6383 4.76603 29.3191 4.46816 30 4.46816C30.7234 4.46816 31.4468 4.51071 32.0851 4.80858C32.3404 4.93624 32.5957 5.0639 32.851 5.23412C32.6808 5.53199 32.468 5.74475 32.2553 6.00007C32 5.87241 31.7446 5.7022 31.4468 5.57454C30.7659 5.31922 29.9574 5.27667 29.2766 5.57454C28.6808 5.78731 28.2127 6.25539 27.9149 6.80858C27.7446 7.23412 27.5744 7.65965 27.4893 8.08518C27.4042 8.51071 27.4042 8.93624 27.3617 9.36177C27.3617 9.91497 27.3191 10.5107 27.3617 11.0639C27.4468 11.8724 27.7446 12.6384 28.2553 13.2341C28.7234 13.7873 29.4042 14.0852 30.1276 14.1703C30.5106 14.1703 30.851 14.1703 31.234 14.0852C31.6595 14.0001 32.0425 13.7448 32.468 13.5745C32.6808 13.7873 32.8936 14.0852 33.1063 14.3405C32.8085 14.5107 32.5106 14.6809 32.1702 14.8086C31.3191 15.149 30.3404 15.1916 29.4468 15.0639C28.7659 14.9362 28.1702 14.5958 27.6595 14.1703C27.0638 13.6596 26.6383 12.9788 26.3829 12.2554C26.2127 11.7448 26.1276 11.2341 26.0851 10.7235C26.0851 10.3405 26 9.95752 26.0851 9.53199C26.0851 8.80858 26.2127 8.04263 26.5106 7.36177C26.8085 6.51071 27.3191 5.7022 28.0851 5.14901Z" fill="black"/>
<path d="M5.87231 4.97873C5.95742 4.97873 6.04253 4.93618 6.12763 4.93618C6.55317 4.93618 6.9787 4.93618 7.40423 4.97873C7.48934 4.97873 7.48934 5.02128 7.53189 5.06383C8.17019 6.38298 8.80848 7.74469 9.48934 9.10639C9.61699 9.40426 9.74465 9.65958 9.91487 9.9149C10.0425 9.70213 10.1702 9.48937 10.2978 9.23405C11.0213 7.78724 11.7447 6.38298 12.4681 4.93618C12.9361 4.93618 13.4042 4.89362 13.9149 4.97873C13.8298 5.2766 13.6595 5.48937 13.5319 5.74469C12.5957 7.57447 11.617 9.40426 10.6383 11.234C10.5957 11.3192 10.5957 11.3617 10.5957 11.4468C10.5957 12.766 10.5957 14.0851 10.5957 15.3617C10.1276 15.3617 9.65955 15.3617 9.19146 15.3617C9.19146 14.0851 9.19146 12.8085 9.19146 11.5319C9.19146 11.4043 9.19146 11.234 9.10636 11.1064C8.21274 9.44681 7.36168 7.78724 6.46806 6.08511C6.29785 5.74469 6.08508 5.36171 5.87231 4.97873Z" fill="#FFFEFE"/>
<path d="M82.6382 5.57448C83.0212 5.44682 83.4042 5.36172 83.8297 5.27661C83.7446 6.00002 83.7021 6.72342 83.7021 7.48938C84.2978 7.48938 84.9361 7.48938 85.5319 7.53193C85.4468 7.8298 85.3191 8.08512 85.1914 8.34044C84.6808 8.34044 84.1702 8.34044 83.617 8.34044C83.617 9.02129 83.617 9.70214 83.617 10.383C83.617 10.8936 83.6595 11.4468 83.617 12C83.617 12.5958 83.617 13.2341 83.6595 13.8298C83.6595 14.0851 83.9148 14.2553 84.1276 14.3404C84.5106 14.4255 84.8936 14.383 85.2765 14.2979C85.3617 14.5107 85.4042 14.766 85.4042 14.9787C85.0638 15.149 84.6808 15.1915 84.2978 15.2341C83.7872 15.2341 83.1914 15.149 82.8085 14.766C82.5106 14.4681 82.5106 14 82.468 13.617C82.4255 12.766 82.468 11.8724 82.4255 11.0213C82.4255 10.1277 82.4255 9.27661 82.4255 8.38299C82.0851 8.38299 81.7446 8.38299 81.4468 8.38299C81.4468 8.08512 81.4468 7.78725 81.4468 7.53193C81.7872 7.53193 82.0851 7.53193 82.4255 7.53193C82.5531 6.85108 82.5531 6.17023 82.6382 5.57448ZM37.5319 7.27661C37.8297 7.27661 38.1702 7.27661 38.468 7.36172C39.1489 7.57448 39.7446 8.08512 40.0851 8.68087C40.3829 9.23406 40.5957 9.8298 40.6383 10.4681C40.6808 11.3192 40.7234 12.1702 40.4255 12.9787C40.1702 13.7447 39.6595 14.4255 38.9361 14.8085C38.2127 15.1915 37.3617 15.2341 36.5957 15.0213C35.9148 14.8511 35.3191 14.383 34.8936 13.7873C34.468 13.149 34.2978 12.383 34.2978 11.5745C34.2978 10.8511 34.2553 10.0851 34.5106 9.36172C34.7234 8.68087 35.1914 8.04257 35.8297 7.61704C36.1276 7.44682 36.4255 7.27661 36.7659 7.23406C37.0212 7.27661 37.2765 7.27661 37.5319 7.27661ZM36.9361 8.25533C36.5531 8.34044 36.1702 8.59576 35.9574 8.93619C35.6595 9.44682 35.5744 10.0426 35.5744 10.6383C35.5319 11.0638 35.5744 11.4894 35.617 11.9149C35.7021 12.4255 35.7872 12.9787 36.0425 13.4468C36.2978 13.9575 36.851 14.1702 37.4042 14.2128C37.9148 14.2553 38.468 14.1277 38.851 13.7021C39.1489 13.3617 39.3191 12.9787 39.3617 12.5107C39.4468 11.9575 39.4468 11.4043 39.4042 10.8936C39.4042 10.3404 39.3191 9.7447 39.1063 9.19151C38.9787 8.85108 38.7234 8.59576 38.4255 8.42555C37.9574 8.17023 37.4468 8.12768 36.9361 8.25533ZM42.7234 7.53193C43.0638 7.40427 43.4042 7.31916 43.7872 7.27661C43.9148 7.61704 44 7.95746 44.0425 8.34044C44.2978 8.21278 44.468 8.00002 44.7234 7.87236C45.234 7.48938 45.8723 7.27661 46.5106 7.27661C46.6383 7.27661 46.8085 7.31916 46.9361 7.40427C47.1489 7.53193 47.3617 7.61704 47.5744 7.78725C47.7446 7.95746 47.8723 8.21278 48 8.42555C48.2978 8.29789 48.5106 8.04257 48.7659 7.87236C49.1914 7.57448 49.7021 7.31916 50.2978 7.27661C50.8085 7.23406 51.3191 7.40427 51.7021 7.7447C51.8723 7.91491 52.0425 8.08512 52.1276 8.29789C52.2127 8.51065 52.2553 8.72342 52.2553 8.97874C52.3404 10.1702 52.2978 11.4043 52.3404 12.5958C52.3404 13.4043 52.3404 14.2128 52.3404 15.0213C51.9574 15.0213 51.5319 15.0213 51.1489 15.0213C51.1489 13.8298 51.1489 12.5958 51.1489 11.4043C51.1489 10.6383 51.1489 9.87236 51.1063 9.06385C51.0638 8.80853 50.9361 8.59576 50.7234 8.42555C50.5106 8.29789 50.2127 8.29789 49.9148 8.29789C49.4468 8.34044 49.0638 8.63831 48.6808 8.93619C48.5106 9.06385 48.3404 9.23406 48.1702 9.36172C48.1276 9.40427 48.1276 9.48938 48.1276 9.53193C48.1276 11.3617 48.1276 13.149 48.1276 14.9787C47.7446 14.9787 47.3191 14.9787 46.9361 14.9787V10.7234C46.9361 10.383 46.9361 10.0426 46.9361 9.70214C46.9361 9.36172 46.9361 8.97874 46.8085 8.68087C46.5531 8.34044 46.0851 8.25534 45.7021 8.38299C45.1063 8.51065 44.5957 8.89363 44.1276 9.31916C44.0425 9.36172 44.0425 9.44682 44.0425 9.53193C44.0425 11.3617 44.0425 13.1915 44.0425 15.0213C43.7021 15.0213 43.3617 15.0213 43.0212 15.0213C42.9787 13.149 43.0212 11.2766 42.9361 9.40427C42.9361 8.97874 42.9361 8.55321 42.851 8.12768C42.8085 7.91491 42.7234 7.70214 42.7234 7.53193ZM63.0212 7.48938C63.4042 7.44682 63.7872 7.36172 64.1702 7.27661C64.2127 8.34044 64.2127 9.40427 64.2127 10.4255C64.2127 11.9575 64.2127 13.4468 64.2127 14.9787C63.8297 14.9787 63.4042 14.9787 63.0212 14.9787C63.0212 12.8085 63.0212 10.6383 63.0212 8.4681C63.0212 8.17023 62.9787 7.78725 63.0212 7.48938ZM78.2978 7.31917C79.1063 7.44682 79.7872 8.21278 79.8297 9.06385C79.8723 10.2979 79.8297 11.5745 79.8297 12.8085V13.1915C79.8297 13.4468 79.8297 13.7021 79.9148 13.9149C79.9574 14.1702 80.2127 14.2979 80.3829 14.4255C80.2127 14.6383 80.0851 14.9362 79.8723 15.1064C79.7446 15.2341 79.5744 15.1064 79.4893 15.0213C79.1914 14.8085 79.0212 14.5107 78.851 14.1702C78.5957 14.2979 78.4255 14.5532 78.1276 14.6809C77.7021 14.9787 77.1914 15.1064 76.6383 15.1064C76.1702 15.1064 75.7021 15.0213 75.2765 14.8085C74.5957 14.4255 74.2127 13.6596 74.2553 12.8936C74.2553 12.1702 74.6382 11.4468 75.1914 11.0213C75.8723 10.5107 76.7659 10.3404 77.617 10.2553C77.9999 10.2128 78.3829 10.2128 78.8085 10.2128C78.8085 9.8298 78.8085 9.44682 78.7234 9.06385C78.6808 8.76597 78.5106 8.42555 78.2127 8.25533C77.8723 8.08512 77.4468 8.04257 77.0638 8.12768C76.3404 8.21278 75.6595 8.51065 75.0638 8.93619C74.8936 8.72342 74.7234 8.51065 74.5957 8.25533C74.5106 8.12768 74.6383 8.04257 74.7234 8.00002C75.5319 7.57448 76.3829 7.1915 77.3191 7.1915H77.7021C77.9148 7.27661 78.0851 7.27661 78.2978 7.31917ZM77.7872 11.1064C77.4042 11.149 77.0638 11.149 76.6808 11.2341C76.2553 11.3617 75.8723 11.617 75.617 12C75.4893 12.2128 75.4893 12.4681 75.4893 12.7234C75.4893 12.9787 75.4468 13.2766 75.5744 13.5319C75.6595 13.7872 75.8723 14.0426 76.1276 14.1277C76.4255 14.2553 76.7659 14.2553 77.1063 14.2553C77.4893 14.2128 77.8297 14 78.1276 13.7447C78.3829 13.5319 78.6383 13.2766 78.6383 12.9362C78.6808 12.3404 78.6808 11.7021 78.6808 11.1064C78.3829 11.149 78.0851 11.0638 77.7872 11.1064ZM90.7234 7.36172C91.4042 7.53193 91.9999 7.95746 92.4255 8.51065C92.7659 8.97874 92.9787 9.48938 93.0638 10.0426C93.1489 10.5532 93.1914 11.1064 93.1489 11.6596C93.1489 12.5532 92.851 13.4043 92.3404 14.0851C91.9148 14.6383 91.234 14.9787 90.5957 15.1064C89.7872 15.2341 88.8936 15.1064 88.1702 14.5958C87.5744 14.1702 87.1914 13.4894 86.9787 12.766C86.851 12.383 86.851 12.0426 86.8085 11.6596C86.8085 11.0213 86.8085 10.4255 86.8936 9.78725C87.0638 9.1064 87.4042 8.42555 87.9148 7.91491C88.2978 7.53193 88.8085 7.31916 89.3191 7.23406C89.8297 7.23406 90.2978 7.27661 90.7234 7.36172ZM89.4468 8.25533C88.8936 8.34044 88.4255 8.76597 88.2553 9.27661C88.0425 9.8298 88.0425 10.4255 88.0425 10.9787C88.0425 11.5319 88.0425 12.0851 88.1702 12.5958C88.2553 12.9787 88.3404 13.3192 88.5957 13.617C88.8085 13.9149 89.1914 14.0851 89.5319 14.1277C89.6595 14.1702 89.8297 14.1702 89.9574 14.1702H90.0851H90.2127C90.5106 14.1277 90.7659 14.0426 91.0212 13.9149C91.3191 13.7447 91.5319 13.4468 91.6595 13.1064C91.7872 12.7234 91.8297 12.2979 91.8723 11.9149C91.8723 11.4468 91.9148 10.9787 91.8723 10.4681C91.8297 9.95746 91.7872 9.44682 91.5319 9.02129C91.3191 8.68087 91.0212 8.42555 90.6382 8.25533C90.2553 8.17023 89.8297 8.17023 89.4468 8.25533ZM95.1914 7.57448C95.5744 7.48938 95.9148 7.36172 96.2553 7.27661C96.468 7.65959 96.468 8.08512 96.5106 8.4681C96.6808 8.34044 96.851 8.17023 97.0212 8.00002C97.5319 7.48938 98.2978 7.19151 99.0212 7.31917V7.40427C98.851 7.7447 98.7659 8.12768 98.5957 8.51065C98.5957 8.59576 98.468 8.55321 98.4255 8.55321C98.1276 8.55321 97.7446 8.55321 97.4893 8.72342C97.1914 8.89363 96.9787 9.1064 96.7659 9.36172C96.5531 9.61704 96.5957 9.95746 96.5957 10.2553C96.5957 10.6809 96.5531 11.1064 96.5957 11.5319C96.5957 12.6809 96.5957 13.8724 96.5957 15.0213C96.2127 15.0213 95.7872 15.0213 95.4042 15.0213C95.4042 13.7447 95.4042 12.4255 95.4042 11.149C95.4042 10.2553 95.4042 9.40427 95.3617 8.51065C95.3191 8.17023 95.234 7.87236 95.1914 7.57448ZM66.5106 7.57448C66.851 7.44682 67.234 7.31917 67.5744 7.31917C67.7021 7.65959 67.7872 8.04257 67.8297 8.38299C68.1276 8.17023 68.4255 7.91491 68.7234 7.7447C69.3617 7.36172 70.1276 7.1064 70.8085 7.36172C71.234 7.48938 71.617 7.7447 71.8723 8.12768C72.0851 8.38299 72.1276 8.76597 72.1702 9.06385C72.2553 10.2553 72.2127 11.4043 72.2127 12.5958C72.2127 13.4043 72.2127 14.1702 72.2127 14.9362C71.8297 14.9362 71.4042 14.9362 71.0212 14.9362C71.0212 13.6596 70.9787 12.3404 70.9787 11.0638C70.9787 10.3404 70.9787 9.61704 70.8936 8.89363C70.7659 8.55321 70.468 8.25533 70.0851 8.25533C69.8297 8.25533 69.5319 8.25534 69.2765 8.34044C68.7234 8.55321 68.2127 8.89363 67.7446 9.27661C67.7446 11.149 67.7446 13.0638 67.7446 14.9362C67.4042 14.9362 67.0638 14.9362 66.7234 14.9362C66.7234 13.8724 66.6808 12.8085 66.6808 11.7021C66.6808 10.5958 66.6808 9.48938 66.5957 8.38299C66.6808 8.17023 66.5957 7.87236 66.5106 7.57448Z" fill="black"/>
</g>
<defs>
<clipPath id="clip0_1299_135">
<rect width="98.9787" height="20" fill="white"/>
</clipPath>
</defs>
</svg>
