<?xml version="1.0" encoding="UTF-8"?>
<svg width="702px" height="210px" viewBox="0 0 702 210" version="1.1" xmlns="http://www.w3.org/2000/svg" xmlns:xlink="http://www.w3.org/1999/xlink">
    <!-- Generator: Sketch 63.1 (92452) - https://sketch.com -->
    <title>bme-logo</title>
    <desc>Created with Sketch.</desc>
    <defs>
        <linearGradient x1="5.46569144%" y1="35.6086046%" x2="87.2783789%" y2="66.8549973%" id="linearGradient-1">
            <stop stop-color="#0092BF" offset="0%"></stop>
            <stop stop-color="#749A58" offset="100%"></stop>
        </linearGradient>
        <linearGradient x1="4.62142096%" y1="32.1694629%" x2="83.7190114%" y2="68.3488836%" id="linearGradient-2">
            <stop stop-color="#0092BF" offset="0%"></stop>
            <stop stop-color="#749A58" offset="100%"></stop>
        </linearGradient>
        <linearGradient x1="0.00479630904%" y1="50%" x2="99.772634%" y2="50%" id="linearGradient-3">
            <stop stop-color="#0092BF" offset="0%"></stop>
            <stop stop-color="#749A58" offset="100%"></stop>
        </linearGradient>
        <linearGradient x1="39.8131184%" y1="28.3043301%" x2="67.0299417%" y2="73.6960625%" id="linearGradient-4">
            <stop stop-color="#0092BF" offset="0%"></stop>
            <stop stop-color="#749A58" offset="100%"></stop>
        </linearGradient>
        <linearGradient x1="34.3957728%" y1="3.48724456%" x2="63.9940131%" y2="105.878911%" id="linearGradient-5">
            <stop stop-color="#0092BF" offset="0%"></stop>
            <stop stop-color="#749A58" offset="100%"></stop>
        </linearGradient>
        <linearGradient x1="34.1680357%" y1="12.3419524%" x2="65.5507046%" y2="101.162866%" id="linearGradient-6">
            <stop stop-color="#0092BF" offset="0%"></stop>
            <stop stop-color="#749A58" offset="100%"></stop>
        </linearGradient>
    </defs>
    <g id="Page-1" stroke="none" stroke-width="1" fill="none" fill-rule="evenodd">
        <g id="bme-logo" fill-rule="nonzero">
            <path d="M23.92,83.18 L23.47,83.18 C15.3310427,83.0082725 7.73575687,87.2521219 3.61589641,94.2734371 C-0.503964062,101.294752 -0.503964062,109.995248 3.61589641,117.016563 C7.73575687,124.037878 15.3310427,128.281727 23.47,128.11 L145.72,128.11 C152.272251,128.11 158.326781,131.605584 161.602907,137.28 C164.879032,142.954416 164.879032,149.945584 161.602907,155.62 C158.326781,161.294416 152.272251,164.79 145.72,164.79 L23.47,164.79 C15.3310427,164.618273 7.73575687,168.862122 3.61589641,175.883437 C-0.503964062,182.904752 -0.503964062,191.605248 3.61589641,198.626563 C7.73575687,205.647878 15.3310427,209.891727 23.47,209.72 L145.72,209.72 C180.663056,209.72 208.99,181.393056 208.99,146.45 C208.99,111.506944 180.663056,83.18 145.72,83.18 L23.92,83.18 Z" id="Path" fill="url(#linearGradient-1)"></path>
            <path d="M193.71,105.24 L192.97,104.61 C181.250127,118.555346 163.96615,126.608025 145.75,126.61 L145.75,128.11 C147.922905,128.116573 150.077013,128.512847 152.11,129.28 C168.774901,127.627146 184.149446,119.576032 195,106.82 C194.59,106.28 194.16,105.76 193.71,105.24 Z" id="Path" fill="#1E6053"></path>
            <path d="M23.47,1.57 C15.3310427,1.39827255 7.73575687,5.64212192 3.61589641,12.6634371 C-0.503964062,19.6847522 -0.503964062,28.3852478 3.61589641,35.4065629 C7.73575687,42.4278781 15.3310427,46.6717275 23.47,46.5 L145.72,46.5 C155.848902,46.5 164.06,54.7110977 164.06,64.84 C164.06,74.9689023 155.848902,83.18 145.72,83.18 L23.47,83.18 C15.3310427,83.0082725 7.73575687,87.2521219 3.61589641,94.2734371 C-0.503964062,101.294752 -0.503964062,109.995248 3.61589641,117.016563 C7.73575687,124.037878 15.3310427,128.281727 23.47,128.11 L145.72,128.11 C180.663056,128.11 208.99,99.7830561 208.99,64.84 C208.99,29.8969439 180.663056,1.57 145.72,1.57 L23.47,1.57 Z" id="Path" fill="url(#linearGradient-2)"></path>
            <path d="M45.93,24 C45.93,14.9108235 40.4542767,6.71681423 32.0565854,3.23947191 C23.6588941,-0.23787041 13.9933624,1.68640096 7.5677747,8.11484957 C1.142187,14.5432982 -0.777781699,24.2096855 2.7032984,32.6058281 C6.1843785,41.0019707 14.3808244,46.474045 23.47,46.4700022 C35.8713625,46.4534624 45.9189827,36.4013687 45.93,24" id="Path" fill="#1D1D1B" opacity="0.15" style="mix-blend-mode: multiply;"></path>
            <path d="M45.93,105.64 C45.93,96.5508235 40.4542767,88.3568142 32.0565854,84.8794719 C23.6588941,81.4021296 13.9933624,83.326401 7.5677747,89.7548496 C1.142187,96.1832982 -0.777781699,105.849686 2.7032984,114.245828 C6.1843785,122.641971 14.3808244,128.114045 23.47,128.110002 C35.8713625,128.093462 45.9189827,118.041369 45.93,105.64" id="Path" fill="#1D1D1B" opacity="0.15" style="mix-blend-mode: multiply;"></path>
            <path d="M45.93,187.25 C45.93,178.160824 40.4542767,169.966814 32.0565854,166.489472 C23.6588941,163.01213 13.9933624,164.936401 7.5677747,171.36485 C1.142187,177.793298 -0.777781699,187.459686 2.7032984,195.855828 C6.1843785,204.251971 14.3808244,209.724045 23.47,209.720002 C35.8736465,209.708966 45.9244873,199.65365 45.93,187.25" id="Path" fill="#1D1D1B" opacity="0.15" style="mix-blend-mode: multiply;"></path>
            <path d="M678.39,127.46 L678.85,127.46 C686.988957,127.631727 694.584243,123.387878 698.704104,116.366563 C702.823964,109.345248 702.823964,100.644752 698.704104,93.6234371 C694.584243,86.6021219 686.988957,82.3582725 678.85,82.53 L556.59,82.53 C546.461098,82.53 538.25,74.3189023 538.25,64.19 C538.25,54.0610977 546.461098,45.85 556.59,45.85 L678.85,45.85 C686.988957,46.0217275 694.584243,41.7778781 698.704104,34.7565629 C702.823964,27.7352478 702.823964,19.0347522 698.704104,12.0134371 C694.584243,4.99212192 686.988957,0.748272549 678.85,0.92 L556.59,0.92 C521.646944,0.920000521 493.320001,29.2469442 493.320001,64.19 C493.320001,99.1330558 521.646944,127.459999 556.59,127.46 L678.39,127.46 Z" id="Path" fill="url(#linearGradient-3)"></path>
            <path d="M550.21,81.36 C533.537962,83.0078506 518.155396,91.0594103 507.3,103.82 C507.72,104.36 508.16,104.88 508.61,105.4 L509.35,106.03 C521.068159,92.0824168 538.353241,84.029223 556.57,84.03 L556.57,82.53 C554.397095,82.5234273 552.242987,82.1271526 550.21,81.36 L550.21,81.36 Z" id="Path" fill="#1E6053"></path>
            <path d="M678.85,209.09 C686.988957,209.261727 694.584243,205.017878 698.704104,197.996563 C702.823964,190.975248 702.823964,182.274752 698.704104,175.253437 C694.584243,168.232122 686.988957,163.988273 678.85,164.16 L556.59,164.16 C546.461098,164.16 538.25,155.948902 538.25,145.82 C538.25,135.691098 546.461098,127.48 556.59,127.48 L678.85,127.48 C686.988957,127.651727 694.584243,123.407878 698.704104,116.386563 C702.823964,109.365248 702.823964,100.664752 698.704104,93.6434371 C694.584243,86.6221219 686.988957,82.3782725 678.85,82.55 L556.59,82.55 C521.646944,82.55 493.32,110.876944 493.32,145.82 C493.32,180.763056 521.646944,209.09 556.59,209.09 L678.85,209.09 Z" id="Path" fill="url(#linearGradient-4)"></path>
            <path d="M656.39,23.39 C656.39,32.4791765 661.865723,40.6731858 670.263415,44.1505281 C678.661106,47.6278704 688.326638,45.703599 694.752225,39.2751504 C701.177813,32.8467018 703.097782,23.1803145 699.616702,14.7841719 C696.135622,6.38802935 687.939176,0.915954973 678.85,0.919997759 C666.446354,0.931034052 656.395513,10.9863498 656.39,23.39" id="Path" fill="#1D1D1B" opacity="0.15" style="mix-blend-mode: multiply;"></path>
            <path d="M656.389998,186.62 C656.385955,195.710085 661.859112,203.907164 670.256483,207.387657 C678.653853,210.868151 688.321025,208.946349 694.748687,202.518687 C701.176349,196.091025 703.098151,186.423853 699.617657,178.026483 C696.137164,169.629112 687.940085,164.155955 678.85,164.159998 C666.452536,164.176526 656.406526,174.222536 656.389998,186.62" id="Path" fill="#1D1D1B" opacity="0.15" style="mix-blend-mode: multiply;"></path>
            <path d="M656.39,105 C656.39,114.089176 661.865723,122.283186 670.263415,125.760528 C678.661106,129.23787 688.326638,127.313599 694.752225,120.88515 C701.177813,114.456702 703.097782,104.790314 699.616702,96.3941719 C696.135622,87.9980293 687.939176,82.525955 678.85,82.5299978 C666.448637,82.5465376 656.401017,92.5986313 656.39,105" id="Path" fill="#1D1D1B" opacity="0.15" style="mix-blend-mode: multiply;"></path>
            <path d="M329.37,186.54 L329.37,187 C329.198273,195.138957 333.442122,202.734243 340.463437,206.854104 C347.484752,210.973964 356.185248,210.973964 363.206563,206.854104 C370.227878,202.734243 374.471727,195.138957 374.3,187 L374.3,64.74 C374.3,54.6110977 382.511098,46.4 392.64,46.4 C402.768902,46.4 410.98,54.6110977 410.98,64.74 L410.98,187 C410.808273,195.138957 415.052122,202.734243 422.073437,206.854104 C429.094752,210.973964 437.795248,210.973964 444.816563,206.854104 C451.837878,202.734243 456.081727,195.138957 455.91,187 L455.91,64.74 C455.909999,29.7969446 427.583055,1.47000189 392.64,1.47000189 C357.696945,1.47000189 329.370001,29.7969446 329.37,64.74 L329.37,186.54 Z" id="Path" fill="url(#linearGradient-5)"></path>
            <path d="M350.8,17.54 C364.745346,29.2598732 372.798025,46.5438504 372.8,64.76 L374.3,64.76 C374.306573,62.5870953 374.702847,60.4329867 375.47,58.4 C373.817534,41.727088 365.762649,26.3450187 353,15.49 C352.46,15.92 351.94,16.35 351.42,16.8 L350.8,17.54 Z" id="Path" fill="#1E6053"></path>
            <path d="M247.78,186.92 C248.037886,199.142398 258.019882,208.916001 270.245,208.916001 C282.470118,208.916001 292.452114,199.142398 292.71,186.92 L292.71,64.66 C292.554626,58.0074541 296.014878,51.7926638 301.75165,48.4207284 C307.488423,45.0487931 314.601577,45.0487931 320.33835,48.4207284 C326.075122,51.7926638 329.535374,58.0074541 329.38,64.66 L329.38,186.92 C329.637886,199.142398 339.619882,208.916001 351.845,208.916001 C364.070118,208.916001 374.052114,199.142398 374.31,186.92 L374.31,64.66 C373.874608,30.0299125 345.677824,2.1854087 311.045,2.1854087 C276.412176,2.1854087 248.215392,30.0299125 247.78,64.66 L247.78,186.92 Z" id="Path" fill="url(#linearGradient-6)"></path>
            <path d="M270.24,164.45 C257.830162,164.45 247.77,174.510162 247.77,186.92 C247.77,199.329838 257.830162,209.39 270.24,209.39 C282.649838,209.39 292.71,199.329838 292.71,186.92 C292.698973,174.514732 282.645268,164.461027 270.24,164.45" id="Path" fill="#1D1D1B" opacity="0.15" style="mix-blend-mode: multiply;"></path>
            <path d="M351.83,164.54 C342.740824,164.54 334.546814,170.015723 331.069472,178.413415 C327.59213,186.811106 329.516401,196.476638 335.94485,202.902225 C342.373298,209.327813 352.039686,211.247782 360.435828,207.766702 C368.831971,204.285622 374.304045,196.089176 374.300002,187 C374.283462,174.598637 364.231369,164.551017 351.83,164.54" id="Path" fill="#1D1D1B" opacity="0.15" style="mix-blend-mode: multiply;"></path>
            <path d="M433.44,164.79 C424.350824,164.79 416.156814,170.265723 412.679472,178.663415 C409.20213,187.061106 411.126401,196.726638 417.55485,203.152225 C423.983298,209.577813 433.649686,211.497782 442.045828,208.016702 C450.441971,204.535622 455.914045,196.339176 455.910002,187.25 C455.898966,174.846354 445.84365,164.795513 433.44,164.79" id="Path" fill="#1D1D1B" opacity="0.15" style="mix-blend-mode: multiply;"></path>
        </g>
    </g>
</svg>