<svg fill="none" xmlns="http://www.w3.org/2000/svg" viewBox="0 0 108 17"><g clip-path="url(#a)"><path d="M103.578 1.725c-.709 2.398-2.077 3.544-3.784 3.544H98.19V1.725h-.479c-.729 2.064-1.749 3.21-3.456 3.836v.5h1.54v6.693c0 2.022.646 2.857 2.25 2.857 1.123 0 1.978-.585 2.581-1.752l.125-.25-.354-.188c-.395.522-.77.772-1.166.772-.791 0-1.041-.5-1.041-2.023V6.061h3.492v6.693c0 2.043.645 2.857 2.248 2.857 1.25 0 2.207-.731 2.852-2.19l-.352-.188c-.521.71-.875.96-1.334.96-.77 0-1.04-.542-1.04-2.023V6.061h2.374V5.27h-2.374V1.725zM29.026 12.962c0 1.626.25 2.044 1.249 2.065v.375H25.57v-.375c.853-.021 1.062-.44 1.062-2.065V8.25c0-1.375-.21-1.814-.875-1.814-.125 0-.229.021-.437.105l-.104-.375 3.352-1.21h.458v2.231c1.104-1.48 2.248-2.23 3.374-2.23 1.873 0 2.706 1.209 2.706 3.898v4.254c0 1.459.291 1.897 1.29 1.918v.375h-4.913v-.375c1.02-.125 1.25-.5 1.25-2.044v-3.92c0-1.855-.355-2.502-1.395-2.502-.771 0-1.521.46-2.312 1.398zM60.064.62h-.48L56.17 1.912l.104.355.188-.042a1.8 1.8 0 0 1 .416-.062c.583 0 .79.48.79 1.772v9.361c0 1.293-.312 1.71-1.269 1.73v.376h4.956v-.375c-.959-.021-1.291-.48-1.291-1.73zm8.148 4.44v3.357h-.437c-.458-1.96-1.104-2.669-2.415-2.669-.896 0-1.478.439-1.478 1.126 0 .689.457 1.147 2.102 2.127 2.332 1.397 2.978 2.169 2.978 3.524 0 1.813-1.541 3.189-3.623 3.189-.542 0-.791-.042-1.916-.312-.104-.042-.187-.042-.312-.042-.146 0-.27.042-.479.188h-.437v-3.732h.353c.5 2.147 1.334 3.086 2.748 3.086.917 0 1.563-.585 1.563-1.398 0-.834 0-.834-2.311-2.355-2.04-1.356-2.416-1.835-2.416-3.17 0-1.792 1.333-3.022 3.29-3.022.395 0 .583.02 1.061.166.5.125.667.167.834.167.188 0 .312-.062.52-.23zM83.344.62h-.479l-3.394 1.292.083.355c.375-.084.479-.104.604-.104.563 0 .812.542.812 1.772v9.361c0 1.251-.354 1.71-1.29 1.73v.376h4.955v-.375c-.96-.021-1.291-.46-1.291-1.73zm7.504 8.819c-2.853 1.293-3.353 1.73-3.353 2.918 0 .98.645 1.648 1.54 1.648.626 0 1.104-.25 1.813-.918zm-.104 4.504-.25.25c-1.145 1.084-1.958 1.521-2.853 1.521-1.437 0-2.499-1.126-2.499-2.627 0-1.793 1.167-2.689 5.706-4.378v-.73c0-1.709-.438-2.356-1.646-2.356-.937 0-1.499.522-1.499 1.398 0 .062 0 .187.021.333v.313c0 .625-.437 1.042-1.083 1.042s-1.103-.479-1.103-1.146c0-1.481 1.77-2.606 4.144-2.606 2.706 0 3.538.791 3.538 3.356v4.545c0 1.71.272 2.148 1.292 2.169v.375h-2.54c-1 0-1.124-.125-1.124-1.085v-.458zM72.786 7.667c.563-.563 1.125-.834 1.75-.834 1.499 0 2.54 1.626 2.54 3.982 0 2.376-.979 4.044-2.374 4.044-.625 0-1.124-.229-1.916-.854zm0-7.047h-.437l-3.415 1.25.125.376c.188-.062.313-.083.459-.083.687 0 .915.437.915 1.772v10.591c1.583.876 2.562 1.188 3.769 1.188 3.02 0 5.248-2.46 5.248-5.796 0-2.877-1.52-4.961-3.582-4.961-1.041 0-2.061.562-2.748 1.521l-.23.313-.104.146zM53.554 8.355c-.105-1.668-.75-2.544-1.875-2.544-1.166 0-1.956.938-2.081 2.544zm2.477 3.503c-.77 2.69-2.02 3.856-4.143 3.856-2.581 0-4.31-2.084-4.31-5.17 0-3.253 1.937-5.587 4.643-5.587 2.332 0 3.665 1.438 3.81 4.17h-6.475c.208 2.856 1.458 4.565 3.31 4.565 1.23 0 2.124-.626 2.832-2.001zm-12.459 1.563c-.749.522-1.186.71-1.665.71-1.52 0-2.582-1.835-2.582-4.463 0-2.418.791-3.92 2.02-3.92 1.499 0 2.227 1.085 2.227 3.336zM45.967.62h-.5L42.094 1.89l.125.355c.292-.083.374-.104.52-.104.646 0 .833.396.833 1.813V5.77c-.811-.626-1.353-.813-2.27-.813-2.539 0-4.538 2.46-4.538 5.628 0 3.024 1.583 5.129 3.852 5.129 1.083 0 1.52-.229 2.956-1.459 0 1.043.105 1.147 1.125 1.147h2.56v-.375c-1.123-.021-1.29-.334-1.29-2.377zM21.453 9.439c-2.727 1.188-3.372 1.752-3.372 2.918 0 .96.666 1.648 1.561 1.648.583 0 1.083-.25 1.811-.918zm0 4.42c-.125.104-.145.125-.374.334-1.229 1.146-1.936 1.521-2.852 1.521-1.417 0-2.499-1.146-2.499-2.668 0-1.751 1.27-2.69 5.725-4.337v-.73c0-1.688-.457-2.356-1.644-2.356-.937 0-1.5.522-1.5 1.398 0 .083 0 .187.02.333v.313c0 .605-.435 1.042-1.081 1.042s-1.104-.459-1.104-1.126c0-1.522 1.77-2.626 4.143-2.626 2.686 0 3.56.813 3.56 3.356v4.545c0 1.793.167 2.148 1.042 2.169v.375h-2.311c-1 0-1.125-.125-1.125-1.085zM11.257 8.292v4.733c0 1.564-.29 1.897-1.749 1.94v.437h6.122v-.438c-1.5-.062-1.749-.375-1.749-2.252V3.08c0-1.522.312-1.939 1.458-2.002l.29-.02V.62H9.51v.437c1.478.064 1.748.355 1.748 1.794v4.524H4.991v-4.42c0-1.501.374-1.918 1.748-1.898V.62H.618v.437c1.332-.02 1.75.438 1.75 1.898v9.757c0 1.898-.25 2.21-1.75 2.252v.438h6.121v-.438c-1.457.042-1.748-.292-1.748-1.98V8.292z" fill="#000"/></g><defs><clipPath id="a"><path fill="#fff" d="M.158.167h107.085v16H.158z"/></clipPath></defs></svg>